<svg xmlns="http://www.w3.org/2000/svg" viewBox="0 0 64 64" id="top-rated">
  <g>
    <path fill="#62bcdb" d="M49.46,57A4,4,0,0,1,46,59H18a4,4,0,0,1-4-4V9a4,4,0,0,1,4-4H36.34a4,4,0,0,1,2.83,1.17l9.66,9.66A4,4,0,0,1,50,18.66V33Z"></path>
    <path fill="#2bc936" d="M55.68,49.7H52.34l-1.56,2.08a2.23,2.23,0,0,1-3.56,0L45.66,49.7H42.32A3.35,3.35,0,0,1,39,46.36v-10A3.35,3.35,0,0,1,42.32,33H55.68A3.35,3.35,0,0,1,59,36.34v10A3.35,3.35,0,0,1,55.68,49.7Z"></path>
    <path fill="#ffbc00" d="M50.08,37.63l.57,1.15a1.15,1.15,0,0,0,.85.62l1.27.18a1.13,1.13,0,0,1,.63,1.93l-.92.9a1.12,1.12,0,0,0-.32,1l.21,1.26a1.13,1.13,0,0,1-1.64,1.2l-1.13-.6a1.17,1.17,0,0,0-1.06,0l-1.13.6a1.13,1.13,0,0,1-1.64-1.2L46,43.41a1.12,1.12,0,0,0-.32-1l-.92-.9a1.13,1.13,0,0,1,.63-1.93l1.26-.18a1.15,1.15,0,0,0,.86-.62l.56-1.15A1.13,1.13,0,0,1,50.08,37.63Z"></path>
    <path d="M14,56a1,1,0,0,1-1-1V9a5,5,0,0,1,5-5H36.34a5,5,0,0,1,3.54,1.46l9.66,9.66A5,5,0,0,1,51,18.66V33a1,1,0,0,1-2,0V18.66a3,3,0,0,0-.88-2.12L38.46,6.88A3,3,0,0,0,36.34,6H18a3,3,0,0,0-3,3V55A1,1,0,0,1,14,56Z"></path>
    <path d="M46 60H18a5 5 0 01-5-5 1 1 0 012 0 3 3 0 003 3H46a3 3 0 002.6-1.5 1 1 0 111.73 1A5 5 0 0146 60zM45 19H41a5 5 0 01-5-5V10a1 1 0 012 0v4a3 3 0 003 3h4a1 1 0 010 2zM32 15H21a1 1 0 010-2H32a1 1 0 010 2zM37 22H21a1 1 0 010-2H37a1 1 0 010 2zM41 29H21a1 1 0 010-2H41a1 1 0 010 2zM35 36H21a1 1 0 010-2H35a1 1 0 010 2zM31 43H21a1 1 0 010-2H31a1 1 0 010 2zM34 50H21a1 1 0 010-2H34a1 1 0 010 2zM46.88 47a2.14 2.14 0 01-2.1-2.49L45 43.24a.15.15 0 000-.11l-.92-.9a2.14 2.14 0 011.18-3.64l1.27-.18a.14.14 0 00.1-.07l.57-1.15a2.13 2.13 0 013.82 0h0l.57 1.15a.13.13 0 00.1.07l1.27.18a2.14 2.14 0 011.18 3.64l-.92.9a.12.12 0 000 .11l.22 1.27a2.13 2.13 0 01-3.09 2.24l-1.14-.59a.13.13 0 00-.12 0l-1.14.59A2.05 2.05 0 0146.88 47zm2.19-2.86a2.05 2.05 0 011 .25L51.2 45a.11.11 0 00.13 0 .13.13 0 00.06-.13l-.22-1.26a2.12 2.12 0 01.62-1.89l.91-.89a.13.13 0 000-.14.14.14 0 00-.11-.09l-1.27-.18a2.16 2.16 0 01-1.61-1.17l-.56-1.15a.14.14 0 00-.24 0l-.57 1.15a2.13 2.13 0 01-1.6 1.17l-1.27.18a.14.14 0 00-.11.09.13.13 0 000 .14l.92.89A2.14 2.14 0 0147 43.58l-.22 1.26a.14.14 0 000 .13.12.12 0 00.14 0l1.14-.59A2.05 2.05 0 0149.07 44.14z"></path>
    <path d="M49,53.67a3.18,3.18,0,0,1-2.58-1.29L45.16,50.7H42.32A4.35,4.35,0,0,1,38,46.36v-10A4.35,4.35,0,0,1,42.32,32H55.68A4.35,4.35,0,0,1,60,36.34v10a4.35,4.35,0,0,1-4.34,4.34H52.84l-1.26,1.68A3.18,3.18,0,0,1,49,53.67ZM42.32,34A2.34,2.34,0,0,0,40,36.34v10a2.34,2.34,0,0,0,2.34,2.34h3.34a1,1,0,0,1,.8.4L48,51.18a1.27,1.27,0,0,0,2,0l1.56-2.08a1,1,0,0,1,.8-.4h3.34A2.34,2.34,0,0,0,58,46.36v-10A2.34,2.34,0,0,0,55.68,34Z"></path>
  </g>
</svg>
